<?xml version="1.0" encoding="utf-8"?>
<!-- Generator: Adobe Illustrator 15.1.0, SVG Export Plug-In  -->
<!DOCTYPE svg PUBLIC "-//W3C//DTD SVG 1.1//EN" "http://www.w3.org/Graphics/SVG/1.1/DTD/svg11.dtd" [
	<!ENTITY ns_flows "http://ns.adobe.com/Flows/1.0/">
]>
<svg version="1.1"
	 xmlns="http://www.w3.org/2000/svg" xmlns:xlink="http://www.w3.org/1999/xlink" xmlns:a="http://ns.adobe.com/AdobeSVGViewerExtensions/3.0/"
	 x="0px" y="0px" width="500px" height="500px" viewBox="-26.1 -2.5 500 500"
	 overflow="visible" enable-background="new -26.1 -2.5 500 500" xml:space="preserve">
<defs>
</defs>
<path fill="#E5E5E5" d="M411.159,97.079l-150.621-86.96c-23.364-13.491-49.911-13.491-73.28,0L36.643,97.079
	C13.273,110.569,0,133.563,0,160.545v173.914c0,26.981,13.273,49.975,36.643,63.462l150.615,86.965
	c23.369,13.485,49.916,13.485,73.28,0l150.621-86.965c23.372-13.487,36.641-36.48,36.641-63.462V160.545
	C447.8,133.563,434.531,110.569,411.159,97.079z M148.889,318.485c-8.741,0-15.321-1.833-19.738-5.5
	c-4.419-3.666-6.627-9.116-6.627-16.355c0-4.229,1.833-11.654,5.499-22.275l16.919-48.643c1.315-3.758,1.974-6.204,1.974-7.332
	c0-1.128-0.259-1.95-0.775-2.467c-0.518-0.516-1.339-0.775-2.467-0.775c-4.794,0-10.434,6.111-16.919,18.329h-13.535
	c12.125-26.225,29.231-39.337,51.321-39.337c7.8,0,13.863,1.904,18.188,5.71c4.322,3.807,6.485,9.048,6.485,15.721
	c0,4.889-1.928,12.643-5.78,23.264l-16.355,44.553c-2.35,6.299-3.524,10.246-3.524,11.844c0,1.036,0.304,1.833,0.916,2.396
	c0.61,0.563,1.48,0.846,2.608,0.846c2.442,0,5.569-2.115,9.377-6.344c3.806-4.229,6.696-8.271,8.67-12.126h14.24
	C187.332,305.653,170.508,318.485,148.889,318.485z M186.815,162.969c-6.016,0-11.186-2.161-15.508-6.485
	c-4.325-4.323-6.486-9.493-6.486-15.509c0-6.109,2.161-11.302,6.486-15.58c4.322-4.276,9.492-6.415,15.508-6.415
	c6.015,0,11.186,2.139,15.51,6.415c4.323,4.278,6.486,9.471,6.486,15.58c0,6.016-2.163,11.187-6.486,15.509
	C198.001,160.809,192.83,162.969,186.815,162.969z M329.859,237.766c-3.338,4.466-8.015,6.697-14.029,6.697
	c-4.229,0-8.061-1.339-11.49-4.018c-3.433-2.679-5.146-6.838-5.146-12.478c0-2.443,0.423-5.027,1.27-7.754
	c0.751-2.349,1.127-4.089,1.127-5.217c0-2.256-0.823-3.948-2.468-5.076c-1.645-1.128-4.159-1.692-7.543-1.692
	c-5.734,0-11.397,2.82-16.989,8.46c-5.593,5.639-10.81,15.557-15.65,29.75c-4.842,14.193-7.261,25.05-7.261,32.569
	c0,7.427,1.598,13.019,4.794,16.777c3.194,3.761,7.988,5.641,14.382,5.641c6.672,0,13.369-1.833,20.09-5.499
	c6.721-3.665,13.466-9.165,20.233-16.497h18.611c-9.401,13.067-20.07,22.866-32.006,29.396c-11.938,6.533-25.145,9.8-39.619,9.8
	c-16.167,0-28.575-3.337-37.222-10.009c-8.649-6.675-12.972-16.307-12.972-28.905c0-13.908,4.441-27.655,13.324-41.24
	c8.883-13.582,20.138-24.368,33.768-32.358c13.628-7.988,27.775-11.984,42.438-11.984c12.782,0,22.207,2.75,28.27,8.248
	c6.062,5.499,9.095,12.15,9.095,19.95C334.865,228.157,333.194,233.303,329.859,237.766z"/>
</svg>
